<mxfile host="65bd71144e">
    <diagram id="avFo2Ypm2wi4KQ42_HjH" name="Page-1">
        <mxGraphModel dx="488" dy="705" grid="1" gridSize="10" guides="1" tooltips="1" connect="1" arrows="1" fold="1" page="1" pageScale="1" pageWidth="850" pageHeight="1100" math="0" shadow="0">
            <root>
                <mxCell id="0"/>
                <mxCell id="1" parent="0"/>
                <mxCell id="2" value="Sunglasses" style="whiteSpace=wrap;html=1;" vertex="1" parent="1">
                    <mxGeometry x="50" y="140" width="350" height="60" as="geometry"/>
                </mxCell>
                <mxCell id="3" value="+ setStyle(styleName: string) : void&lt;br&gt;+ getStyle() : string&lt;br&gt;+ setDarkness(dkness : num) : void&lt;br&gt;getDarkness() : num" style="whiteSpace=wrap;html=1;" vertex="1" parent="1">
                    <mxGeometry x="50" y="260" width="350" height="180" as="geometry"/>
                </mxCell>
                <mxCell id="4" value="- style : string&lt;br&gt;- darkness : num" style="whiteSpace=wrap;html=1;" vertex="1" parent="1">
                    <mxGeometry x="50" y="200" width="350" height="60" as="geometry"/>
                </mxCell>
                <mxCell id="5" value="PrescriptionSunglasses" style="whiteSpace=wrap;html=1;" vertex="1" parent="1">
                    <mxGeometry x="480" y="140" width="350" height="60" as="geometry"/>
                </mxCell>
                <mxCell id="6" value="+ setOs(osNum: num) : void&lt;br&gt;+ getOs() : num&lt;br&gt;+ setOd(odNum : num) : void&lt;br&gt;getOd() : num" style="whiteSpace=wrap;html=1;" vertex="1" parent="1">
                    <mxGeometry x="480" y="260" width="350" height="180" as="geometry"/>
                </mxCell>
                <mxCell id="7" value="- style : string&lt;br&gt;- darkness : num&lt;br&gt;-os : num&lt;br&gt;- od : num" style="whiteSpace=wrap;html=1;" vertex="1" parent="1">
                    <mxGeometry x="480" y="200" width="350" height="60" as="geometry"/>
                </mxCell>
            </root>
        </mxGraphModel>
    </diagram>
</mxfile>